<svg xmlns="http://www.w3.org/2000/svg" viewBox="0 0 64 64" role="img" aria-label="雷鳥と山のfavicon">
  <defs>
    <linearGradient id="sky" x1="0" y1="0" x2="0" y2="1">
      <stop offset="0%" stop-color="#173453"/>
      <stop offset="100%" stop-color="#2f6f8f"/>
    </linearGradient>
    <linearGradient id="mountain" x1="0" y1="0" x2="0" y2="1">
      <stop offset="0%" stop-color="#d7e3ec"/>
      <stop offset="100%" stop-color="#8ea9bc"/>
    </linearGradient>
    <linearGradient id="summer" x1="0" y1="0" x2="1" y2="1">
      <stop offset="0%" stop-color="#8a6a46"/>
      <stop offset="100%" stop-color="#6b4e34"/>
    </linearGradient>
  </defs>

  <rect x="4" y="4" width="56" height="56" rx="14" fill="url(#sky)"/>
  <circle cx="46" cy="16" r="4.2" fill="#fbd38d"/>

  <path d="M4 46 L20 24 L30 35 L40 21 L60 46 Z" fill="url(#mountain)"/>
  <path d="M11 46 L26 29 L32 36 L40 27 L53 46 Z" fill="#e5edf4" opacity="0.9"/>
  <path d="M4 46 H60 V60 H4 Z" fill="#678a6f" opacity="0.55"/>

  <ellipse cx="34" cy="40" rx="10.4" ry="7.5" fill="url(#summer)"/>
  <ellipse cx="42.6" cy="36.9" rx="3.8" ry="3.3" fill="#7b5a3d"/>
  <path d="M23.6 39.6 C21.8 41.2,22.3 44.2,27.1 45.1 C25.3 43.1,25.2 40.8,27.1 38.7 Z" fill="#151b25"/>
  <path d="M45.9 36.9 L49.4 38.2 L45.8 39.5 Z" fill="#d9a740"/>

  <circle cx="43.8" cy="36.3" r="1.05" fill="#111827"/>
  <path d="M29 36.6 C31.6 34.8,35.5 34.8,38.8 36.2" fill="none" stroke="#9e7a51" stroke-width="1.1" stroke-linecap="round"/>
  <path d="M28.2 40 C30.8 38.7,34.6 39,37.5 40.5" fill="none" stroke="#af8a5d" stroke-width="1" stroke-linecap="round"/>
  <path d="M35.9 43.3 L35.1 46.1 M39.1 42.9 L38.8 45.9" stroke="#72614f" stroke-width="1.1" stroke-linecap="round"/>
</svg>
